<svg width="18" height="30" viewBox="0 0 18 30" fill="none" xmlns="http://www.w3.org/2000/svg">
<path d="M10.6196 30H5.82064C5.01905 30 4.367 29.3472 4.367 28.5448V17.7086H1.56717C0.765584 17.7086 0.113525 17.0556 0.113525 16.2534V11.61C0.113525 10.8076 0.765584 10.1548 1.56717 10.1548H4.367V7.82959C4.367 5.52406 5.09016 3.56255 6.45807 2.15744C7.83214 0.745926 9.75242 0 12.0113 0L15.6713 0.0059509C16.4715 0.00732422 17.1224 0.660095 17.1224 1.46118V5.7724C17.1224 6.57486 16.4705 7.22763 15.6692 7.22763L13.205 7.22855C12.4535 7.22855 12.2621 7.37938 12.2212 7.42561C12.1537 7.50229 12.0735 7.71904 12.0735 8.31757V10.1546H15.484C15.7408 10.1546 15.9895 10.218 16.2033 10.3374C16.6644 10.5954 16.9511 11.0831 16.9511 11.6103L16.9493 16.2536C16.9493 17.0556 16.2972 17.7084 15.4957 17.7084H12.0735V28.5448C12.0735 29.3472 11.4212 30 10.6196 30ZM6.12381 28.2413H10.3165V16.9212C10.3165 16.3854 10.752 15.9496 11.287 15.9496H15.1925L15.1941 11.9135H11.2868C10.7518 11.9135 10.3165 11.4777 10.3165 10.9419V8.31757C10.3165 7.63046 10.3862 6.84906 10.9043 6.26175C11.5303 5.55176 12.5168 5.46982 13.2045 5.46982L15.3656 5.4689V1.76422L12.0099 1.75873C8.37972 1.75873 6.12381 4.08508 6.12381 7.82959V10.9419C6.12381 11.4775 5.68849 11.9135 5.15349 11.9135H1.87033V15.9496H5.15349C5.68849 15.9496 6.12381 16.3854 6.12381 16.9212V28.2413ZM15.6678 1.76468H15.6681H15.6678Z" fill="white"/>
</svg>
