<svg width="30" height="31" viewBox="0 0 30 31" fill="none" xmlns="http://www.w3.org/2000/svg">
<path d="M21.5389 0.511719H7.99439C3.58621 0.511719 0 4.09606 0 8.50194V22.0396C0 26.4453 3.58621 30.0296 7.99439 30.0296H21.5391C25.9471 30.0296 29.5333 26.4453 29.5333 22.0396V8.50194C29.5333 4.09606 25.9471 0.511719 21.5389 0.511719V0.511719ZM27.8019 22.0396C27.8019 25.4911 24.9924 28.2991 21.5389 28.2991H7.99439C4.54089 28.2991 1.73137 25.4911 1.73137 22.0396V8.50194C1.73137 5.05025 4.54089 2.24218 7.99439 2.24218H21.5391C24.9924 2.24218 27.8019 5.05025 27.8019 8.50194V22.0396Z" fill="white"/>
<path d="M14.7666 7.1996C10.3138 7.1996 6.69128 10.8202 6.69128 15.2707C6.69128 19.7211 10.3138 23.3417 14.7666 23.3417C19.2194 23.3417 22.8418 19.7211 22.8418 15.2707C22.8418 10.8202 19.2194 7.1996 14.7666 7.1996ZM14.7666 21.6113C11.2687 21.6113 8.42265 18.767 8.42265 15.2707C8.42265 11.7746 11.2687 8.93006 14.7666 8.93006C18.2647 8.93006 21.1105 11.7746 21.1105 15.2707C21.1105 18.767 18.2647 21.6113 14.7666 21.6113Z" fill="white"/>
<path d="M23.035 4.33318C21.7191 4.33318 20.6488 5.40312 20.6488 6.71808C20.6488 8.03327 21.7191 9.10322 23.035 9.10322C24.3508 9.10322 25.4213 8.03327 25.4213 6.71808C25.4213 5.40289 24.3508 4.33318 23.035 4.33318ZM23.035 7.37252C22.674 7.37252 22.3802 7.07886 22.3802 6.71808C22.3802 6.35708 22.674 6.06364 23.035 6.06364C23.3961 6.06364 23.69 6.35708 23.69 6.71808C23.69 7.07886 23.3961 7.37252 23.035 7.37252Z" fill="white"/>
</svg>
