<svg width="31" height="22" viewBox="0 0 31 22" fill="none" xmlns="http://www.w3.org/2000/svg">
<path d="M30.3116 0.382026C30.0175 0.0384337 29.53 -0.0889855 29.0965 0.0639175L1.56328 9.60915C1.01322 9.80094 0.627122 10.266 0.555445 10.8229C0.484454 11.3772 0.739103 11.915 1.2168 12.2245L5.1524 14.8019C5.53369 15.0517 6.02398 15.0785 6.43229 14.8718L14.9694 10.5529L8.31582 15.3191C8.00346 15.5429 7.81683 15.8999 7.81683 16.2738V20.6887C7.81683 21.1441 8.0772 21.5613 8.49627 21.7779C8.91603 21.9945 9.42304 21.973 9.82173 21.7208L12.8118 19.8181L15.7522 21.7414C16.0098 21.9108 16.3166 22 16.6263 22C16.7309 22 16.836 21.9897 16.9395 21.969C17.3524 21.8864 17.7177 21.6417 17.9419 21.2977L30.3988 1.59207C30.6413 1.21267 30.6065 0.727156 30.3116 0.382026ZM16.5605 20.2271L13.5155 18.2352C13.3037 18.0964 13.0596 18.0269 12.8157 18.0269C12.5771 18.0269 12.3382 18.0935 12.1291 18.2266L9.57647 19.851V16.523L21.3253 8.10692C21.85 7.73103 21.9821 7.04693 21.6324 6.51572C21.2825 5.98451 20.582 5.80503 20.0029 6.09809L5.88727 13.2391L2.55851 11.0591L27.9128 2.26937L16.5605 20.2271Z" fill="white"/>
</svg>
